<mxfile host="app.diagrams.net" modified="2024-03-24T14:34:59.459Z" agent="Mozilla/5.0 (Windows NT 10.0; Win64; x64) AppleWebKit/537.36 (KHTML, like Gecko) Chrome/122.0.0.0 Safari/537.36" etag="3ttv5GHQrf58UjQvgNrR" version="24.1.0" type="device">
  <diagram id="R2lEEEUBdFMjLlhIrx00" name="Page-1">
    <mxGraphModel dx="1290" dy="583" grid="1" gridSize="10" guides="1" tooltips="1" connect="1" arrows="1" fold="1" page="1" pageScale="1" pageWidth="850" pageHeight="1100" math="0" shadow="0" extFonts="Permanent Marker^https://fonts.googleapis.com/css?family=Permanent+Marker">
      <root>
        <mxCell id="0" />
        <mxCell id="1" parent="0" />
        <mxCell id="6YflXtAhSPLKVEbpgHBJ-1" value="보유&amp;nbsp;&lt;div&gt;조리기구&lt;/div&gt;" style="rounded=0;whiteSpace=wrap;html=1;" parent="1" vertex="1">
          <mxGeometry x="160" y="230" width="120" height="60" as="geometry" />
        </mxCell>
        <mxCell id="6YflXtAhSPLKVEbpgHBJ-31" style="edgeStyle=orthogonalEdgeStyle;rounded=0;orthogonalLoop=1;jettySize=auto;html=1;exitX=0.5;exitY=0;exitDx=0;exitDy=0;entryX=0.5;entryY=1;entryDx=0;entryDy=0;endArrow=none;endFill=0;" parent="1" source="6YflXtAhSPLKVEbpgHBJ-2" target="6YflXtAhSPLKVEbpgHBJ-13" edge="1">
          <mxGeometry relative="1" as="geometry" />
        </mxCell>
        <mxCell id="6YflXtAhSPLKVEbpgHBJ-32" style="edgeStyle=orthogonalEdgeStyle;rounded=0;orthogonalLoop=1;jettySize=auto;html=1;exitX=1;exitY=0.5;exitDx=0;exitDy=0;entryX=0;entryY=0.5;entryDx=0;entryDy=0;endArrow=none;endFill=0;" parent="1" source="6YflXtAhSPLKVEbpgHBJ-2" target="6YflXtAhSPLKVEbpgHBJ-3" edge="1">
          <mxGeometry relative="1" as="geometry">
            <Array as="points">
              <mxPoint x="490" y="310" />
              <mxPoint x="490" y="310" />
            </Array>
          </mxGeometry>
        </mxCell>
        <mxCell id="6YflXtAhSPLKVEbpgHBJ-33" style="edgeStyle=orthogonalEdgeStyle;rounded=0;orthogonalLoop=1;jettySize=auto;html=1;exitX=0.5;exitY=1;exitDx=0;exitDy=0;entryX=0.5;entryY=0;entryDx=0;entryDy=0;endArrow=none;endFill=0;" parent="1" source="6YflXtAhSPLKVEbpgHBJ-2" target="6YflXtAhSPLKVEbpgHBJ-12" edge="1">
          <mxGeometry relative="1" as="geometry">
            <Array as="points">
              <mxPoint x="400" y="380" />
              <mxPoint x="400" y="380" />
            </Array>
          </mxGeometry>
        </mxCell>
        <mxCell id="6YflXtAhSPLKVEbpgHBJ-38" style="edgeStyle=orthogonalEdgeStyle;rounded=0;orthogonalLoop=1;jettySize=auto;html=1;exitX=0;exitY=0.25;exitDx=0;exitDy=0;entryX=1;entryY=0.5;entryDx=0;entryDy=0;endArrow=none;endFill=0;" parent="1" source="6YflXtAhSPLKVEbpgHBJ-2" target="6YflXtAhSPLKVEbpgHBJ-1" edge="1">
          <mxGeometry relative="1" as="geometry" />
        </mxCell>
        <mxCell id="6YflXtAhSPLKVEbpgHBJ-39" style="edgeStyle=orthogonalEdgeStyle;rounded=0;orthogonalLoop=1;jettySize=auto;html=1;exitX=0;exitY=0.75;exitDx=0;exitDy=0;entryX=1;entryY=0.5;entryDx=0;entryDy=0;endArrow=none;endFill=0;" parent="1" source="6YflXtAhSPLKVEbpgHBJ-2" target="6YflXtAhSPLKVEbpgHBJ-4" edge="1">
          <mxGeometry relative="1" as="geometry">
            <Array as="points">
              <mxPoint x="310" y="325" />
              <mxPoint x="310" y="360" />
            </Array>
          </mxGeometry>
        </mxCell>
        <mxCell id="6YflXtAhSPLKVEbpgHBJ-2" value="회원정보" style="rounded=0;whiteSpace=wrap;html=1;" parent="1" vertex="1">
          <mxGeometry x="340" y="280" width="120" height="60" as="geometry" />
        </mxCell>
        <mxCell id="6YflXtAhSPLKVEbpgHBJ-34" style="edgeStyle=orthogonalEdgeStyle;rounded=0;orthogonalLoop=1;jettySize=auto;html=1;exitX=0.5;exitY=1;exitDx=0;exitDy=0;entryX=0.5;entryY=0;entryDx=0;entryDy=0;endArrow=none;endFill=0;" parent="1" source="6YflXtAhSPLKVEbpgHBJ-3" target="6YflXtAhSPLKVEbpgHBJ-11" edge="1">
          <mxGeometry relative="1" as="geometry">
            <Array as="points">
              <mxPoint x="580" y="360" />
              <mxPoint x="580" y="360" />
            </Array>
          </mxGeometry>
        </mxCell>
        <mxCell id="6YflXtAhSPLKVEbpgHBJ-35" style="edgeStyle=orthogonalEdgeStyle;rounded=0;orthogonalLoop=1;jettySize=auto;html=1;exitX=1;exitY=0.5;exitDx=0;exitDy=0;entryX=0;entryY=0.5;entryDx=0;entryDy=0;endArrow=none;endFill=0;" parent="1" source="6YflXtAhSPLKVEbpgHBJ-3" target="6YflXtAhSPLKVEbpgHBJ-6" edge="1">
          <mxGeometry relative="1" as="geometry">
            <Array as="points">
              <mxPoint x="680" y="310" />
              <mxPoint x="680" y="310" />
            </Array>
          </mxGeometry>
        </mxCell>
        <mxCell id="6YflXtAhSPLKVEbpgHBJ-36" style="edgeStyle=orthogonalEdgeStyle;rounded=0;orthogonalLoop=1;jettySize=auto;html=1;exitX=0.5;exitY=0;exitDx=0;exitDy=0;entryX=0.5;entryY=1;entryDx=0;entryDy=0;endArrow=none;endFill=0;" parent="1" source="6YflXtAhSPLKVEbpgHBJ-3" target="6YflXtAhSPLKVEbpgHBJ-8" edge="1">
          <mxGeometry relative="1" as="geometry">
            <Array as="points">
              <mxPoint x="580" y="270" />
              <mxPoint x="580" y="270" />
            </Array>
          </mxGeometry>
        </mxCell>
        <mxCell id="6YflXtAhSPLKVEbpgHBJ-3" value="레시피" style="rounded=0;whiteSpace=wrap;html=1;" parent="1" vertex="1">
          <mxGeometry x="520" y="280" width="120" height="60" as="geometry" />
        </mxCell>
        <mxCell id="6YflXtAhSPLKVEbpgHBJ-4" value="식재료 보관도구" style="rounded=0;whiteSpace=wrap;html=1;" parent="1" vertex="1">
          <mxGeometry x="160" y="330" width="120" height="60" as="geometry" />
        </mxCell>
        <mxCell id="6YflXtAhSPLKVEbpgHBJ-6" value="레시피 히스토리" style="rounded=0;whiteSpace=wrap;html=1;" parent="1" vertex="1">
          <mxGeometry x="700" y="280" width="120" height="60" as="geometry" />
        </mxCell>
        <mxCell id="6YflXtAhSPLKVEbpgHBJ-8" value="레시피 평점" style="rounded=0;whiteSpace=wrap;html=1;" parent="1" vertex="1">
          <mxGeometry x="520" y="180" width="120" height="60" as="geometry" />
        </mxCell>
        <mxCell id="6YflXtAhSPLKVEbpgHBJ-11" value="요리 과정" style="rounded=0;whiteSpace=wrap;html=1;" parent="1" vertex="1">
          <mxGeometry x="520" y="380" width="120" height="60" as="geometry" />
        </mxCell>
        <mxCell id="6YflXtAhSPLKVEbpgHBJ-12" value="보유&lt;div&gt;식자재&lt;/div&gt;" style="rounded=0;whiteSpace=wrap;html=1;" parent="1" vertex="1">
          <mxGeometry x="340" y="400" width="120" height="60" as="geometry" />
        </mxCell>
        <mxCell id="6YflXtAhSPLKVEbpgHBJ-13" value="고객센터&lt;div&gt;민원내역&lt;/div&gt;" style="rounded=0;whiteSpace=wrap;html=1;" parent="1" vertex="1">
          <mxGeometry x="340" y="160" width="120" height="60" as="geometry" />
        </mxCell>
      </root>
    </mxGraphModel>
  </diagram>
</mxfile>
